<?xml version="1.0" standalone="no"?>
<!DOCTYPE svg PUBLIC "-//W3C//DTD SVG 20010904//EN"
 "http://www.w3.org/TR/2001/REC-SVG-20010904/DTD/svg10.dtd">
<svg version="1.0" xmlns="http://www.w3.org/2000/svg"
 width="300.000000pt" height="302.000000pt" viewBox="0 0 300.000000 302.000000"
 preserveAspectRatio="xMidYMid meet">
<metadata>
Created by potrace 1.10, written by Peter Selinger 2001-2011
</metadata>
<g transform="translate(0.000000,302.000000) scale(0.100000,-0.100000)"
fill="#000000" stroke="none">
<path d="M1223 2992 c-46 -9 -83 -19 -83 -22 0 -7 54 -7 60 1 5 7 61 16 150
25 30 3 57 7 59 10 10 10 -110 1 -186 -14z"/>
<path d="M1456 3001 c-4 -7 -5 -15 -2 -18 9 -9 19 4 14 18 -4 11 -6 11 -12 0z"/>
<path d="M1623 2999 c9 -5 22 -7 28 -3 6 3 15 0 20 -7 4 -7 11 -10 14 -7 14
14 -8 28 -43 28 -30 -1 -34 -3 -19 -11z"/>
<path d="M1701 2996 c12 -10 59 -15 59 -6 0 5 -14 10 -32 10 -17 0 -29 -2 -27
-4z"/>
<path d="M1775 2980 c4 -6 11 -8 16 -5 5 4 9 2 9 -3 0 -6 9 -8 20 -5 12 3 20
0 20 -7 0 -8 9 -10 25 -6 14 4 25 2 25 -4 0 -5 7 -10 15 -10 26 0 16 19 -12
26 -16 3 -44 10 -63 15 -46 12 -63 11 -55 -1z"/>
<path d="M1020 2939 c-368 -126 -692 -413 -865 -763 -46 -93 -41 -112 6 -22
18 35 36 63 39 61 3 -2 6 8 6 21 2 26 25 54 46 54 11 0 11 2 0 9 -10 6 -10 10
3 21 8 7 15 19 15 26 0 8 5 14 10 14 6 0 10 6 10 14 0 8 7 17 16 20 8 3 13 10
9 16 -3 5 3 15 15 22 11 7 20 17 20 22 0 12 53 61 62 58 5 -1 8 4 8 10 1 19
47 68 65 68 8 0 14 6 13 13 -2 7 5 11 17 9 15 -2 17 -1 6 7 -11 7 -9 12 10 22
13 7 28 12 34 10 5 -1 7 1 2 5 -9 9 22 44 40 44 7 0 13 4 13 9 0 10 124 91
139 91 5 0 11 3 13 8 3 8 127 70 190 96 20 8 46 12 58 9 13 -4 20 -1 18 7 -2
7 17 18 45 26 26 8 47 17 47 19 0 9 -26 3 -110 -26z"/>
<path d="M1930 2941 c0 -7 6 -11 13 -9 19 5 97 -24 91 -34 -3 -5 -2 -8 3 -7
20 3 44 -2 40 -8 -3 -5 8 -9 23 -10 15 -1 49 -16 76 -33 26 -16 54 -30 61 -30
7 0 12 -5 10 -11 -1 -6 8 -12 19 -14 24 -2 124 -72 124 -86 0 -5 7 -9 15 -9 9
0 18 -7 21 -15 4 -8 12 -15 18 -15 16 0 56 -42 56 -59 0 -7 5 -9 10 -6 11 7
40 -18 40 -34 0 -6 5 -11 11 -11 5 0 7 -5 3 -12 -4 -6 -3 -8 4 -4 6 3 16 1 21
-6 6 -7 29 -33 51 -58 22 -24 40 -50 40 -57 0 -8 7 -16 15 -19 8 -4 15 -12 15
-19 0 -7 7 -15 15 -19 8 -3 15 -13 15 -21 0 -9 -4 -13 -10 -10 -5 3 -10 1 -10
-5 0 -6 8 -10 18 -8 12 2 25 -14 47 -57 31 -62 65 -115 65 -102 0 18 -68 140
-124 222 -71 104 -240 279 -341 353 -151 111 -455 253 -455 213z"/>
<path d="M1625 2920 c-3 -5 -1 -10 4 -10 6 0 11 5 11 10 0 6 -2 10 -4 10 -3 0
-8 -4 -11 -10z"/>
<path d="M1450 2874 c0 -8 5 -12 10 -9 6 3 10 10 10 16 0 5 -4 9 -10 9 -5 0
-10 -7 -10 -16z"/>
<path d="M1838 2863 c7 -3 16 -2 19 1 4 3 -2 6 -13 5 -11 0 -14 -3 -6 -6z"/>
<path d="M1430 2800 c0 -5 5 -10 11 -10 5 0 7 5 4 10 -3 6 -8 10 -11 10 -2 0
-4 -4 -4 -10z"/>
<path d="M2270 2751 c0 -8 -6 -11 -16 -7 -26 10 -77 -21 -154 -93 -49 -46 -70
-73 -65 -81 5 -9 4 -11 -3 -6 -7 4 -17 -4 -24 -21 -7 -15 -20 -40 -30 -55 -14
-20 -15 -28 -6 -31 7 -3 2 -6 -12 -6 -18 -1 -21 -4 -11 -10 11 -7 8 -12 -13
-26 -14 -9 -24 -21 -21 -25 3 -4 -4 -18 -14 -31 -10 -13 -21 -34 -25 -46 -8
-25 -34 -49 -43 -39 -4 4 -2 11 5 15 10 6 10 19 3 57 -6 27 -12 67 -15 89 -9
77 -29 128 -54 132 -15 2 -25 -3 -28 -15 -17 -49 -125 -255 -148 -281 -9 -10
-16 -23 -16 -29 0 -7 -3 -12 -7 -12 -5 0 -28 -18 -53 -41 -25 -22 -61 -48 -81
-59 -19 -10 -41 -26 -48 -34 -14 -16 -81 -23 -81 -8 0 5 -19 23 -42 40 -24 17
-64 51 -90 76 -26 25 -86 75 -135 112 -48 37 -93 72 -100 78 -7 6 -19 17 -27
23 -24 21 -229 123 -234 118 -3 -3 -2 -5 2 -5 4 0 0 -7 -8 -16 -11 -11 -16
-34 -16 -75 0 -33 -5 -69 -10 -80 -11 -19 -22 -133 -24 -240 -1 -53 -2 -55
-26 -50 -14 2 -19 6 -12 9 16 5 5 22 -14 22 -9 0 -12 -5 -8 -11 4 -7 -7 -4
-24 7 -34 20 -37 32 -3 14 13 -7 21 -7 21 -1 0 37 -253 51 -302 17 -12 -9 -32
-16 -43 -17 -11 0 -40 -10 -64 -22 -39 -19 -48 -30 -68 -82 -13 -32 -23 -62
-23 -66 0 -3 17 10 38 30 43 41 161 91 284 120 60 14 75 15 71 4 -4 -9 4 -13
24 -13 18 0 51 -15 84 -38 51 -36 54 -39 51 -77 -2 -21 -5 -46 -7 -56 -2 -9
-7 -53 -10 -98 l-8 -81 64 -60 c35 -33 74 -63 86 -66 13 -4 23 -12 23 -19 0
-20 -17 -27 -24 -10 -9 24 -29 17 -59 -23 -26 -34 -34 -83 -12 -72 5 3 9 12 7
20 -2 13 -2 13 7 0 7 -9 6 -19 0 -27 -12 -14 -18 -12 -143 46 -95 44 -122 50
-113 26 4 -8 2 -17 -3 -20 -17 -10 -11 -25 8 -19 15 5 15 4 1 -5 -15 -9 -15
-18 1 -99 18 -100 64 -190 129 -259 46 -48 45 -49 -25 -28 -31 9 -63 28 -84
50 -33 34 -65 50 -40 20 10 -12 10 -15 -3 -15 -22 0 -25 -36 -9 -95 19 -68 64
-144 123 -209 27 -30 49 -59 49 -65 0 -5 17 -22 37 -36 21 -14 33 -25 28 -25
-6 0 -2 -5 7 -11 13 -7 17 -19 13 -46 -2 -20 0 -54 6 -77 6 -23 13 -52 16 -66
4 -14 13 -30 21 -36 12 -9 21 -70 22 -162 0 -13 4 -20 10 -17 5 3 7 0 4 -8 -3
-8 5 -33 16 -55 12 -23 20 -47 18 -54 -6 -16 79 -61 99 -54 17 7 46 -12 38
-24 -5 -8 134 -64 141 -57 2 2 -22 14 -54 27 -62 25 -79 36 -70 46 9 8 90 -29
144 -66 25 -16 59 -32 77 -34 18 -3 48 -10 67 -16 39 -11 208 -26 200 -17 -5
5 -48 14 -78 16 -9 1 -11 8 -7 21 4 12 2 20 -5 20 -6 0 -8 -4 -5 -10 3 -5 1
-10 -5 -10 -6 0 -13 7 -16 15 -4 8 -11 15 -17 15 -6 0 0 -11 13 -25 13 -14 19
-25 13 -25 -6 0 -16 7 -23 15 -7 8 -20 15 -28 15 -13 0 -12 -3 4 -15 10 -8 14
-15 7 -15 -16 0 -54 41 -47 52 3 4 10 5 16 2 7 -4 8 -2 4 5 -12 18 -35 -5 -29
-29 8 -31 -28 -13 -62 30 -32 42 -49 49 -59 25 -7 -20 -16 -19 -46 6 l-25 20
32 -15 c28 -14 32 -14 37 0 8 21 -32 56 -91 77 -52 19 -123 20 -123 2 0 -5
-16 7 -35 28 -27 30 -32 41 -23 51 10 10 19 10 47 0 44 -16 71 -17 71 -4 0 10
-14 14 -85 25 -47 8 -95 49 -95 82 0 23 23 32 35 13 8 -12 25 -13 25 -2 0 5
-16 17 -35 28 -19 10 -35 21 -36 24 0 3 -2 13 -4 23 -3 17 -2 17 14 3 28 -26
37 -18 11 9 -13 14 -18 25 -12 25 6 0 16 -8 21 -19 6 -10 22 -22 36 -25 14 -4
25 -11 25 -16 0 -13 -7 -13 -31 0 -14 8 -19 7 -19 -2 0 -7 28 -24 62 -37 35
-12 71 -27 80 -32 22 -11 68 -12 68 0 0 4 -20 19 -45 32 -25 13 -45 27 -45 31
0 4 -17 15 -37 23 -53 22 -142 93 -159 128 -11 21 -14 43 -9 77 l7 48 35 -14
c19 -9 52 -26 72 -39 20 -13 81 -35 136 -49 55 -13 144 -36 198 -50 107 -29
143 -37 291 -66 55 -11 102 -18 104 -15 3 3 11 0 18 -6 16 -13 156 -24 299
-23 160 1 349 40 377 79 17 24 19 -9 2 -62 -12 -39 -30 -69 -53 -92 -20 -19
-30 -31 -23 -27 6 4 12 3 12 -3 0 -16 -14 -20 -27 -6 -9 10 -6 20 11 46 13 19
28 50 34 69 11 32 10 33 -3 16 -8 -11 -15 -24 -15 -29 0 -4 -5 -5 -12 -1 -6 4
-8 3 -5 -4 10 -15 -38 -104 -67 -126 -14 -10 -23 -22 -20 -27 3 -5 -2 -9 -12
-9 -9 0 -33 -9 -53 -19 -34 -18 -74 -31 -194 -62 -71 -18 -44 -34 29 -18 33 7
66 14 74 14 8 1 37 7 63 14 34 10 44 16 35 22 -9 6 -7 9 9 9 12 0 25 5 28 11
4 6 14 8 22 5 8 -3 12 -2 9 3 -3 5 1 12 10 15 9 3 12 11 8 18 -5 8 -2 9 9 5
11 -4 14 -2 10 9 -4 12 0 15 21 12 15 -2 25 -7 24 -13 -1 -5 -9 -8 -18 -7 -8
2 -12 1 -8 -3 3 -3 14 -8 25 -9 20 -3 20 -20 0 -21 -23 -2 -48 -18 -44 -29 2
-6 -6 -21 -17 -34 -21 -21 -22 -21 -23 -2 -1 11 4 20 13 20 8 0 14 6 14 14 0
7 7 19 15 26 9 7 14 15 11 17 -2 2 -17 -10 -34 -27 -20 -20 -30 -39 -29 -55 1
-13 -1 -24 -5 -25 -36 -1 -39 1 -33 20 3 11 3 20 0 20 -8 0 -75 -71 -75 -79 0
-4 -17 -13 -37 -21 -44 -15 -137 -14 -203 3 l-45 12 76 6 c49 4 93 15 123 29
25 13 44 25 42 27 -2 3 -22 -5 -43 -15 -22 -12 -71 -23 -113 -27 -135 -12
-169 -8 -259 31 -56 25 -82 31 -66 15 16 -15 113 -51 179 -66 34 -7 79 -18
101 -24 22 -6 65 -13 95 -17 30 -3 60 -10 65 -14 6 -5 30 3 57 20 26 16 59 32
73 34 52 10 71 19 103 53 20 21 40 32 50 30 16 -4 16 -5 0 -6 -10 0 -20 -12
-24 -26 -6 -26 -68 -60 -129 -72 -34 -7 -89 -32 -83 -39 8 -7 130 37 216 78
69 32 81 42 72 53 -13 16 -16 77 -5 95 4 6 -1 17 -11 24 -13 10 -14 15 -4 21
9 5 11 4 6 -3 -4 -7 -2 -12 3 -12 6 0 23 19 38 43 15 23 31 45 36 48 4 3 14
37 22 75 27 119 28 134 16 134 -6 0 -11 3 -11 8 0 10 53 45 62 40 4 -1 15 7
23 19 9 13 41 35 72 49 117 56 242 221 257 339 11 92 11 138 0 142 -7 2 -26
-8 -43 -22 -37 -32 -38 -28 -10 20 30 51 18 53 -15 3 -20 -31 -24 -43 -14 -49
7 -4 18 -3 24 2 8 7 14 6 17 -3 4 -9 6 -8 6 3 1 18 31 35 31 19 0 -6 -5 -10
-11 -10 -6 0 -9 -6 -6 -14 3 -7 2 -30 -3 -49 -5 -25 -4 -37 4 -40 8 -3 8 -7 0
-18 -6 -8 -14 -27 -18 -44 -15 -62 -82 -150 -175 -228 -41 -34 -64 -36 -27 -2
50 47 72 144 54 245 -15 88 -18 82 37 86 28 2 63 10 79 16 26 10 27 12 10 18
-23 9 -46 2 -38 -11 3 -5 0 -9 -5 -9 -6 0 -11 7 -11 15 0 8 5 15 12 15 6 0 9
2 6 5 -8 8 -39 -6 -33 -14 2 -4 -3 -8 -11 -8 -9 0 -2 12 19 34 19 18 39 45 45
60 23 62 43 136 38 141 -6 6 -9 -1 -31 -81 -19 -66 -58 -116 -116 -149 -28
-15 -38 -27 -33 -38 3 -8 10 -41 15 -73 18 -112 -13 -197 -102 -284 -39 -37
-143 -113 -156 -113 -2 0 -37 -16 -77 -35 -74 -35 -160 -61 -232 -68 -23 -2
-47 -7 -53 -11 -7 -5 -89 -8 -184 -7 -130 0 -183 4 -216 16 -24 8 -69 18 -100
21 -31 4 -94 19 -141 34 -47 15 -125 38 -175 50 -49 12 -99 26 -110 30 -11 5
-38 14 -60 21 -93 28 -153 52 -195 77 -25 15 -61 34 -80 43 -42 19 -151 135
-175 186 -15 31 -37 153 -29 153 2 0 25 -12 51 -26 45 -26 108 -47 185 -63 46
-10 59 9 18 27 -15 7 -55 38 -89 69 -80 72 -119 151 -127 255 l-6 73 29 -40
c35 -47 91 -99 133 -120 43 -22 37 -2 -7 27 -21 14 -53 40 -71 59 -42 43 -97
130 -77 122 8 -3 15 -9 15 -14 0 -5 6 -9 14 -9 12 0 130 -45 221 -85 70 -31
116 -47 120 -43 3 2 -16 15 -43 28 -26 13 -53 30 -60 37 -8 7 -18 11 -23 8 -5
-4 -6 1 -3 9 3 9 10 16 15 16 5 0 9 5 9 10 0 6 12 28 26 50 28 42 24 41 99 24
18 -5 17 -3 -4 16 -19 16 -26 18 -32 8 -7 -10 -9 -10 -9 1 0 8 -3 12 -6 8 -12
-12 -140 106 -152 141 -5 15 -7 43 -5 62 2 19 5 65 6 102 2 63 3 66 20 51 9
-9 17 -22 17 -30 0 -7 5 -13 10 -13 17 0 11 17 -16 49 -25 30 -26 33 -20 138
4 60 11 124 15 143 5 19 9 53 10 75 0 22 5 65 11 94 7 39 7 58 -1 67 -9 11 -8
14 5 14 10 0 14 4 11 10 -21 34 193 -97 310 -189 123 -97 270 -224 273 -236 3
-14 60 -36 64 -24 2 4 19 11 38 14 19 3 46 13 60 22 33 21 128 115 149 146 9
14 32 49 52 79 20 29 51 81 69 113 18 33 36 64 40 68 12 13 42 -140 43 -215 1
-101 -20 -139 -95 -171 -58 -25 -70 -47 -27 -47 12 0 29 -10 40 -22 15 -19 20
-20 28 -9 7 10 22 12 62 7 29 -4 60 -11 70 -16 9 -5 43 -12 75 -16 36 -4 74
-16 96 -30 21 -13 44 -24 53 -24 19 0 19 -4 1 -38 -28 -53 -52 -65 -120 -57
-67 7 -133 32 -155 58 -21 26 -33 20 -15 -8 15 -23 15 -25 0 -31 -9 -3 -16
-16 -16 -28 0 -17 -2 -18 -10 -6 -8 12 -10 12 -15 -2 -5 -12 15 -38 65 -90 83
-84 104 -113 95 -128 -8 -13 -97 -13 -155 1 -25 6 -49 12 -55 13 -35 8 -53 19
-65 41 -15 28 -33 34 -23 8 4 -11 3 -14 -5 -9 -7 4 -12 3 -12 -2 0 -10 76 -69
117 -90 19 -11 45 -18 105 -29 15 -3 48 3 75 12 26 9 54 19 62 21 11 4 11 7 0
20 -10 13 -10 17 2 25 10 6 10 9 2 9 -7 0 -13 11 -13 23 0 15 -21 47 -57 85
-87 93 -109 133 -46 85 31 -24 45 -28 92 -26 31 1 70 8 86 17 17 9 40 16 52
16 22 0 44 17 63 48 9 15 17 10 65 -41 30 -31 52 -49 48 -40 -5 16 -3 15 13
-2 53 -54 94 -119 88 -138 -4 -13 -2 -17 5 -13 14 9 31 -33 40 -100 6 -40 4
-51 -5 -47 -14 5 -8 -33 6 -42 20 -12 82 -15 102 -4 12 7 52 19 89 29 l66 16
-12 -47 c-15 -55 -45 -99 -86 -123 -30 -18 -32 -43 -1 -27 30 16 92 90 92 109
0 11 7 39 15 62 8 23 13 46 10 50 -3 5 -24 0 -48 -10 -23 -10 -58 -21 -77 -25
-33 -7 -34 -6 -15 9 11 8 16 16 11 16 -6 0 -20 -10 -33 -22 -25 -24 -48 -30
-75 -22 -14 4 -18 16 -18 53 0 27 -7 66 -16 87 l-16 38 41 36 c42 37 80 107
81 150 0 14 -21 61 -46 105 -25 44 -56 103 -69 130 -25 53 -95 285 -95 315 0
10 -7 45 -15 77 -8 32 -16 109 -18 170 -2 62 -6 116 -10 119 -4 4 -7 2 -7 -5z
m-10 -75 c0 -13 -12 -53 -28 -88 -15 -34 -41 -102 -57 -150 -16 -49 -33 -88
-37 -88 -4 0 -1 19 8 42 8 22 12 43 9 46 -7 7 -24 -42 -35 -106 -5 -31 -16
-95 -25 -141 -8 -47 -12 -99 -9 -117 9 -47 -17 -58 -81 -34 -47 17 -131 47
-165 58 -8 3 -18 5 -22 4 -4 -1 -5 5 -1 14 4 12 8 13 14 3 7 -12 16 20 23 84
1 15 11 37 22 50 42 49 114 156 114 171 0 8 14 30 30 48 29 32 40 55 20 43 -5
-3 -10 -1 -10 5 0 7 7 10 15 6 10 -3 23 7 39 32 29 46 57 73 116 111 56 36 60
37 60 7z m15 -141 c3 -49 9 -94 13 -100 4 -5 8 -21 9 -35 7 -56 34 -160 58
-225 25 -65 36 -90 105 -240 42 -90 46 -125 20 -177 -16 -32 -30 -46 -55 -54
-33 -10 -34 -10 -75 48 -24 31 -58 69 -76 83 -19 14 -34 31 -34 38 0 7 -11 24
-25 39 -14 15 -25 30 -25 33 0 3 -15 35 -32 72 -29 60 -33 78 -33 148 1 57 8
99 24 145 12 36 24 72 26 81 2 9 12 38 23 65 12 27 31 77 44 111 13 33 24 60
25 60 0 -1 4 -42 8 -92z m-205 21 c0 -3 -4 -8 -10 -11 -5 -3 -10 -1 -10 4 0 6
5 11 10 11 6 0 10 -2 10 -4z m-120 -181 c-7 -8 -17 -15 -22 -15 -6 0 -5 7 2
15 7 8 17 15 22 15 6 0 5 -7 -2 -15z m-40 -55 c0 -5 -5 -10 -11 -10 -5 0 -7 5
-4 10 3 6 8 10 11 10 2 0 4 -4 4 -10z m-79 -117 c-12 -20 -14 -14 -5 12 4 9 9
14 11 11 3 -2 0 -13 -6 -23z m-1 -43 c0 -13 -5 -18 -15 -14 -11 5 -12 9 -2 20
16 18 17 17 17 -6z m-20 -30 c0 -5 -4 -10 -10 -10 -5 0 -10 5 -10 10 0 6 5 10
10 10 6 0 10 -4 10 -10z m-1438 -22 c-12 -12 -35 -1 -27 12 3 5 13 6 21 3 10
-4 12 -9 6 -15z m1088 7 c-7 -8 -18 -15 -24 -15 -6 0 -2 7 8 15 25 19 32 19
16 0z m-1130 -2 c0 -5 -11 -13 -25 -20 -28 -13 -34 1 -7 16 21 12 32 14 32 4z
m-60 -28 c0 -8 -6 -12 -15 -9 -8 3 -28 -4 -44 -15 -31 -23 -51 -27 -51 -11 0
6 9 10 19 10 10 0 22 7 25 16 3 8 9 13 13 11 5 -3 17 -1 28 4 11 4 21 8 23 8
1 1 2 -6 2 -14z m1483 -5 c3 -11 3 -20 1 -20 -2 0 -8 9 -14 20 -6 11 -7 20 -2
20 6 0 12 -9 15 -20z m37 9 c0 -6 6 -9 13 -6 14 5 67 -23 67 -36 0 -5 -10 -3
-22 5 -13 8 -35 18 -50 22 -26 6 -40 26 -18 26 6 0 10 -5 10 -11z m-63 -15
c-3 -3 -12 -4 -19 -1 -8 3 -5 6 6 6 11 1 17 -2 13 -5z m-1116 -24 c5 0 9 -7 9
-15 0 -21 -14 -19 -36 7 -18 20 -18 21 -1 15 10 -4 23 -7 28 -7z m-474 -22
c-3 -8 -6 -5 -6 6 -1 11 2 17 5 13 3 -3 4 -12 1 -19z m1773 12 c12 -8 11 -10
-7 -10 -13 0 -23 5 -23 10 0 13 11 13 30 0z m214 -52 c5 -30 -13 -29 -54 2
l-25 20 28 0 c17 0 27 -5 27 -15 0 -8 4 -15 10 -15 6 0 6 9 0 26 -6 14 -10 28
-10 32 1 14 19 -25 24 -50z m27 15 c1 -5 3 -18 4 -30 1 -13 8 -29 15 -38 8
-10 9 -15 2 -15 -15 0 -35 38 -27 51 4 5 1 16 -5 24 -9 11 -9 15 -1 15 6 0 12
-3 12 -7z m-1524 -65 c-3 -7 -5 -2 -5 12 0 14 2 19 5 13 2 -7 2 -19 0 -25z
m1511 -38 c-11 -18 -28 -27 -28 -16 0 16 14 36 26 36 12 0 12 -4 2 -20z
m-1511 -25 c-4 -42 -15 -57 -12 -18 3 45 5 53 10 53 3 0 4 -16 2 -35z m1892
-40 c0 -20 0 -20 -9 0 -5 11 -9 27 -9 35 -1 13 0 13 9 0 5 -8 9 -24 9 -35z
m-604 12 c17 -5 36 -12 44 -14 8 -2 11 -6 8 -9 -10 -10 -72 7 -97 28 -20 16
-21 18 -5 13 11 -4 34 -12 50 -18z m-95 -27 c0 -5 -5 -10 -11 -10 -5 0 -7 5
-4 10 3 6 8 10 11 10 2 0 4 -4 4 -10z m-1203 -37 c-3 -10 -5 -4 -5 12 0 17 2
24 5 18 2 -7 2 -21 0 -30z m12 -66 c1 -5 -3 -5 -9 -2 -5 3 -10 16 -9 28 0 21
1 21 9 2 5 -11 9 -24 9 -28z m1314 -27 c-7 -7 -53 48 -53 63 0 7 14 -4 29 -23
16 -19 27 -37 24 -40z m-183 -90 c0 -5 -7 -7 -15 -4 -8 4 -15 8 -15 10 0 2 7
4 15 4 8 0 15 -4 15 -10z m114 -11 c39 -1 40 -1 14 -10 -20 -8 -40 -6 -75 5
-37 12 -40 15 -14 11 18 -3 52 -5 75 -6z m-1166 -65 c-7 -15 -14 -21 -16 -15
-2 7 2 18 8 26 18 22 21 18 8 -11z m-64 -429 c11 -8 15 -15 10 -15 -6 0 -19 7
-30 15 -10 8 -14 14 -9 14 6 0 19 -6 29 -14z m16 -327 c0 -13 -23 -5 -28 10
-2 7 2 10 12 6 9 -3 16 -11 16 -16z m30 -18 c0 -5 -2 -10 -4 -10 -3 0 -8 5
-11 10 -3 6 -1 10 4 10 6 0 11 -4 11 -10z m-5 -30 c3 -5 1 -10 -4 -10 -6 0
-11 5 -11 10 0 6 2 10 4 10 3 0 8 -4 11 -10z m1598 -119 c5 -20 -5 -43 -19
-43 -5 0 -28 -8 -51 -19 -23 -10 -47 -19 -52 -19 -6 0 -11 -5 -11 -11 0 -8 -5
-8 -15 1 -8 7 -12 16 -9 21 3 5 0 9 -6 9 -7 0 -9 -8 -5 -19 4 -12 0 -21 -11
-25 -14 -5 -15 -4 -4 9 11 13 8 15 -21 15 -29 0 -31 -2 -16 -12 16 -12 14 -13
-10 -14 -46 -2 -83 -8 -83 -14 0 -3 -23 -6 -51 -7 -55 -1 -54 6 3 35 35 18 35
18 31 -2 -4 -20 -4 -20 10 -3 9 10 18 18 21 17 15 -4 86 13 92 21 3 5 13 9 22
9 10 0 43 13 74 30 33 16 60 25 63 20 4 -6 13 -10 21 -10 8 0 12 5 9 10 -4 6
-11 7 -17 4 -7 -4 -8 -2 -4 4 11 18 33 14 39 -7z m-1113 -1 c12 -8 11 -10 -7
-10 -12 0 -25 5 -28 10 -8 13 15 13 35 0z m-433 -76 c-3 -3 -12 -4 -19 -1 -8
3 -5 6 6 6 11 1 17 -2 13 -5z m928 -34 c3 -5 -1 -10 -9 -10 -9 0 -16 5 -16 10
0 6 4 10 9 10 6 0 13 -4 16 -10z m200 -1 c-4 -6 -14 -8 -23 -4 -8 3 -19 0 -23
-6 -4 -7 -12 -8 -20 -4 -9 6 -8 10 7 16 29 12 66 11 59 -2z m-85 -3 c0 -2 -7
-7 -16 -10 -8 -3 -12 -2 -9 4 6 10 25 14 25 6z m-915 -46 c3 -5 -1 -10 -10
-10 -9 0 -13 5 -10 10 3 6 8 10 10 10 2 0 7 -4 10 -10z m-75 -151 c0 -19 -26
-8 -27 12 -2 17 1 18 13 9 8 -7 14 -16 14 -21z m1373 -53 c4 -10 1 -13 -9 -9
-15 6 -19 23 -5 23 5 0 11 -7 14 -14z m-1360 -10 c4 -10 1 -13 -9 -9 -7 3 -14
9 -14 14 0 14 17 10 23 -5z m52 -44 c-7 -8 -35 7 -35 18 0 6 7 6 20 -2 10 -7
17 -14 15 -16z m74 14 c-12 -10 -59 -15 -59 -6 0 5 14 10 32 10 17 0 29 -2 27
-4z m81 -16 c21 -11 42 -25 46 -31 4 -8 0 -8 -15 0 -12 7 -26 9 -31 6 -6 -3
-10 0 -10 9 0 8 -12 19 -27 24 -16 6 -22 11 -15 11 7 1 30 -8 52 -19z m-80 -4
c0 -3 -4 -8 -10 -11 -5 -3 -10 -1 -10 4 0 6 5 11 10 11 6 0 10 -2 10 -4z m60
-17 c0 -10 -12 -11 -34 -3 -25 10 -19 22 9 16 14 -2 25 -8 25 -13z m120 -59
c0 -5 -5 -10 -11 -10 -5 0 -7 5 -4 10 3 6 8 10 11 10 2 0 4 -4 4 -10z"/>
<path d="M2030 2219 c0 -5 5 -7 10 -4 6 3 10 8 10 11 0 2 -4 4 -10 4 -5 0 -10
-5 -10 -11z"/>
<path d="M1940 2160 c-14 -11 -32 -20 -41 -20 -8 0 -24 -7 -35 -16 -18 -14
-17 -15 19 -9 40 6 111 48 100 59 -10 9 -16 7 -43 -14z"/>
<path d="M2253 2425 c0 -8 4 -12 9 -9 5 3 6 10 3 15 -9 13 -12 11 -12 -6z"/>
<path d="M2190 553 l-25 -26 27 16 c15 9 34 17 43 17 9 0 13 5 10 10 -10 16
-28 10 -55 -17z"/>
<path d="M2150 555 c-7 -9 -11 -18 -8 -20 3 -3 11 1 18 10 7 9 11 18 8 20 -3
3 -11 -1 -18 -10z"/>
<path d="M870 2680 c0 -5 5 -10 11 -10 5 0 7 5 4 10 -3 6 -8 10 -11 10 -2 0
-4 -4 -4 -10z"/>
<path d="M2475 2560 c10 -11 20 -20 22 -20 2 0 -2 9 -9 20 -7 11 -17 20 -22
20 -5 0 -1 -9 9 -20z"/>
<path d="M2375 2530 c-3 -5 -1 -10 4 -10 6 0 11 5 11 10 0 6 -2 10 -4 10 -3 0
-8 -4 -11 -10z"/>
<path d="M1160 2503 c0 -15 19 -37 26 -31 3 4 -1 14 -10 23 -9 9 -16 13 -16 8z"/>
<path d="M2480 2500 c0 -5 5 -10 11 -10 5 0 7 5 4 10 -3 6 -8 10 -11 10 -2 0
-4 -4 -4 -10z"/>
<path d="M710 2483 c0 -7 23 -43 80 -128 15 -22 40 -65 55 -95 15 -30 48 -86
73 -125 95 -148 116 -194 118 -267 1 -38 -2 -68 -6 -68 -5 0 -14 -17 -20 -37
-7 -21 -16 -42 -21 -47 -13 -15 -11 -26 6 -26 8 0 15 5 15 10 0 6 6 10 13 10
33 1 73 108 61 163 -7 35 -10 41 -74 167 -109 215 -142 269 -260 423 -20 25
-40 36 -40 20z m188 -278 c6 -14 10 -25 8 -25 -2 0 -11 11 -20 25 -9 14 -13
25 -8 25 5 0 14 -11 20 -25z m120 -200 c-3 -3 -9 2 -12 12 -6 14 -5 15 5 6 7
-7 10 -15 7 -18z m29 -237 c-3 -8 -6 -5 -6 6 -1 11 2 17 5 13 3 -3 4 -12 1
-19z"/>
<path d="M1865 2460 c3 -5 8 -10 11 -10 2 0 4 5 4 10 0 6 -5 10 -11 10 -5 0
-7 -4 -4 -10z"/>
<path d="M2411 2414 c0 -11 3 -14 6 -6 3 7 2 16 -1 19 -3 4 -6 -2 -5 -13z"/>
<path d="M1468 2413 c7 -3 16 -2 19 1 4 3 -2 6 -13 5 -11 0 -14 -3 -6 -6z"/>
<path d="M2375 2300 c3 -5 8 -10 11 -10 2 0 4 5 4 10 0 6 -5 10 -11 10 -5 0
-7 -4 -4 -10z"/>
<path d="M1417 2239 c7 -7 15 -10 18 -7 3 3 -2 9 -12 12 -14 6 -15 5 -6 -5z"/>
<path d="M2605 2170 c-16 -7 -17 -9 -3 -9 9 -1 20 4 23 9 7 11 7 11 -20 0z"/>
<path d="M2852 2114 c-1 -15 4 -24 12 -24 9 0 12 7 9 20 -8 30 -18 32 -21 4z"/>
<path d="M2885 2053 c1 -16 12 -50 24 -77 12 -26 31 -93 42 -148 17 -82 18
-102 8 -109 -8 -4 -11 -10 -8 -13 2 -3 11 -1 19 4 11 7 12 20 1 82 -11 63 -78
288 -86 288 -1 0 -2 -12 0 -27z"/>
<path d="M2705 2010 c3 -5 11 -10 16 -10 6 0 7 5 4 10 -3 6 -11 10 -16 10 -6
0 -7 -4 -4 -10z"/>
<path d="M44 1871 c-3 -20 -7 -49 -10 -66 -4 -30 -4 -30 7 -5 7 14 11 35 10
48 -2 13 4 31 13 41 14 15 14 18 1 18 -9 0 -17 -14 -21 -36z"/>
<path d="M22 1750 c0 -14 2 -19 5 -12 2 6 2 18 0 25 -3 6 -5 1 -5 -13z"/>
<path d="M2970 1685 c0 -8 5 -15 10 -15 6 0 10 7 10 15 0 8 -4 15 -10 15 -5 0
-10 -7 -10 -15z"/>
<path d="M10 1668 c0 -19 2 -20 10 -8 13 19 13 30 0 30 -5 0 -10 -10 -10 -22z"/>
<path d="M946 1682 c-3 -5 1 -9 9 -9 8 0 12 4 9 9 -3 4 -7 8 -9 8 -2 0 -6 -4
-9 -8z"/>
<path d="M2637 1660 c3 -11 7 -20 9 -20 2 0 4 9 4 20 0 11 -4 20 -9 20 -5 0
-7 -9 -4 -20z"/>
<path d="M2971 1653 c0 -5 4 -17 9 -28 8 -18 9 -17 9 8 1 15 -3 27 -9 27 -5 0
-10 -3 -9 -7z"/>
<path d="M2080 1478 c-52 -56 -60 -85 -60 -212 0 -71 4 -116 10 -116 6 0 11
10 12 23 1 12 2 31 3 42 1 11 3 32 4 48 1 22 6 27 25 27 14 0 28 -5 32 -11 13
-21 5 -91 -12 -110 -22 -24 -14 -32 20 -20 17 7 26 7 26 1 0 -20 27 -9 38 16
9 18 9 31 2 45 -6 11 -8 24 -5 29 3 5 1 11 -5 15 -5 3 -10 14 -10 23 0 28 -53
82 -80 82 -23 1 -24 2 -7 14 9 7 17 18 17 23 0 5 16 27 36 47 l36 37 36 -22
c54 -32 80 -58 105 -104 l23 -41 -28 -44 c-32 -52 -36 -75 -11 -66 9 4 20 1
25 -6 8 -11 11 -10 15 0 3 8 18 29 34 47 16 18 29 36 29 40 0 16 52 109 68
122 15 11 15 14 2 23 -20 13 -30 13 -31 -2 0 -7 -4 -4 -9 7 -8 19 -9 19 -9 -2
-1 -12 -14 -31 -30 -42 -31 -22 -43 -26 -38 -13 1 4 -15 31 -35 59 -40 56 -76
73 -156 73 -36 0 -48 -5 -72 -32z m30 -23 c0 -2 -10 -10 -22 -16 -21 -11 -22
-11 -9 4 13 16 31 23 31 12z m-49 -62 c-12 -20 -14 -14 -5 12 4 9 9 14 11 11
3 -2 0 -13 -6 -23z m329 -42 c0 -6 -5 -13 -11 -16 -6 -4 -8 -13 -5 -21 3 -8 1
-14 -4 -14 -6 0 -10 6 -11 13 0 6 -7 -10 -15 -36 -8 -27 -19 -45 -25 -41 -7 4
-7 10 0 18 6 7 8 16 4 19 -3 4 -1 7 5 7 7 0 12 8 12 18 0 10 7 28 16 40 16 23
34 29 34 13z m-328 -33 c-7 -7 -12 -8 -12 -2 0 6 3 14 7 17 3 4 9 5 12 2 2 -3
-1 -11 -7 -17z m88 -80 c0 -19 -16 -5 -17 14 -2 18 0 20 7 8 5 -8 10 -18 10
-22z m10 -53 c-7 -8 -14 -15 -15 -15 -2 0 -5 7 -9 15 -4 10 1 15 16 15 17 0
18 -2 8 -15z"/>
<path d="M1347 1423 c-52 -24 -60 -31 -89 -90 l-31 -64 -46 7 c-25 4 -52 12
-60 18 -11 9 -13 7 -7 -12 10 -30 101 -123 152 -155 55 -34 114 -50 114 -31 0
8 -3 13 -7 12 -13 -4 -67 29 -91 55 -19 20 -23 32 -17 59 9 49 45 119 79 156
42 45 75 43 143 -10 54 -41 54 -42 34 -58 -36 -26 -50 -66 -50 -138 0 -65 1
-68 22 -67 21 2 22 7 22 76 0 63 3 74 18 77 30 6 46 -17 53 -79 6 -58 7 -59
25 -43 13 12 17 24 12 38 -3 12 -5 36 -4 55 2 35 -27 106 -65 158 -17 23 -39
36 -78 47 -68 20 -60 21 -129 -11z m153 -28 c11 -13 10 -14 -4 -9 -9 3 -16 10
-16 15 0 13 6 11 20 -6z m59 -82 c-12 -15 -12 -16 3 -10 10 3 20 2 23 -2 2 -5
-8 -11 -25 -13 -29 -4 -30 0 -7 30 5 6 12 12 14 12 3 0 -1 -8 -8 -17z m-350
-67 c9 -10 8 -15 -4 -19 -8 -4 -14 -1 -12 6 1 7 -4 11 -11 9 -8 -1 -11 2 -7 8
9 14 20 13 34 -4z m26 -44 c-6 -24 -8 -25 -16 -9 -6 9 -7 23 -2 30 4 6 8 15 9
20 4 19 7 20 11 4 3 -10 2 -31 -2 -45z"/>
<path d="M2981 1415 c-2 -11 -2 -32 -1 -47 1 -16 -3 -28 -8 -28 -6 0 -8 -9 -5
-19 8 -29 -32 -210 -64 -291 -3 -8 -8 -24 -10 -35 -2 -10 -10 -29 -18 -42 -8
-12 -11 -24 -6 -27 10 -7 13 0 51 109 37 109 72 291 67 351 -2 27 -5 40 -6 29z"/>
<path d="M587 1399 c7 -7 15 -10 18 -7 3 3 -2 9 -12 12 -14 6 -15 5 -6 -5z"/>
<path d="M2728 1373 c7 -3 16 -2 19 1 4 3 -2 6 -13 5 -11 0 -14 -3 -6 -6z"/>
<path d="M2410 1312 c0 -7 4 -20 9 -30 5 -9 19 -43 31 -74 12 -32 26 -58 32
-58 5 0 4 9 -2 21 -7 11 -18 42 -25 67 -15 48 -44 97 -45 74z"/>
<path d="M20 1286 c0 -14 4 -27 8 -30 5 -3 6 8 4 25 -5 35 -12 38 -12 5z"/>
<path d="M2406 1208 c3 -5 10 -6 15 -3 13 9 11 12 -6 12 -8 0 -12 -4 -9 -9z"/>
<path d="M2490 1212 c0 -4 10 -13 23 -21 22 -14 22 -14 3 8 -20 22 -26 25 -26
13z"/>
<path d="M589 1197 c6 -8 7 -18 3 -22 -4 -5 -1 -5 6 -1 10 6 10 11 1 22 -6 8
-14 14 -16 14 -3 0 0 -6 6 -13z"/>
<path d="M40 1178 c0 -15 5 -30 10 -33 6 -4 7 -11 4 -17 -4 -7 -2 -8 5 -4 9 6
9 11 1 21 -7 8 -9 18 -7 23 3 4 2 14 -4 22 -6 11 -9 8 -9 -12z"/>
<path d="M680 1166 c0 -2 8 -10 18 -17 15 -13 16 -12 3 4 -13 16 -21 21 -21
13z"/>
<path d="M1897 1130 c-56 -10 -97 -34 -97 -57 0 -15 1 -15 18 0 10 10 26 17
35 17 9 0 19 5 22 10 4 6 14 10 23 9 10 -2 27 1 40 5 16 5 33 1 58 -13 40 -24
44 -25 44 -11 0 9 -87 54 -93 49 -1 -1 -24 -5 -50 -9z"/>
<path d="M1527 1065 c3 -8 9 -12 14 -9 12 7 11 11 -5 17 -10 4 -13 1 -9 -8z"/>
<path d="M71 1060 c0 -8 4 -22 9 -30 12 -18 12 -2 0 25 -6 13 -9 15 -9 5z"/>
<path d="M1952 1029 c-30 -10 -71 -20 -93 -22 -68 -7 -65 -20 13 -60 51 -26
52 -37 6 -37 -15 0 -28 -4 -28 -8 0 -14 -48 -32 -86 -32 -19 0 -52 9 -74 20
-43 22 -70 26 -70 10 0 -5 5 -10 10 -10 6 0 39 -30 75 -66 35 -36 69 -63 74
-59 6 3 29 -4 52 -15 92 -48 204 -65 228 -36 10 11 9 21 -3 45 -20 38 -21 63
-1 37 15 -20 15 -19 35 2 12 13 17 28 13 39 -5 14 -3 16 7 6 17 -16 39 -6 77
36 53 58 46 65 -23 21 -44 -27 -48 -28 -75 -15 -15 8 -38 14 -51 14 -24 -2
-78 17 -78 26 0 4 4 4 9 0 5 -3 31 7 58 23 53 31 68 66 37 89 -23 17 -46 15
-112 -8z m92 -9 c38 -14 32 -27 -24 -55 -61 -31 -97 -31 -135 0 -44 36 -22 42
36 11 28 -16 53 -26 56 -23 2 3 -9 13 -26 22 -17 8 -31 18 -31 20 0 2 21 11
48 19 26 8 48 15 49 15 1 1 13 -3 27 -9z m-189 -41 c11 -17 -1 -21 -15 -4 -8
9 -8 15 -2 15 6 0 14 -5 17 -11z m101 -94 c16 -14 35 -25 41 -25 7 0 15 -12
19 -27 3 -16 10 -43 16 -60 5 -18 6 -38 2 -44 -12 -20 -95 -4 -169 32 -59 29
-70 38 -70 59 0 19 6 26 25 29 14 1 43 16 64 32 22 16 41 29 41 29 1 0 15 -11
31 -25z m-176 -35 c0 -5 -5 -10 -11 -10 -5 0 -7 5 -4 10 3 6 8 10 11 10 2 0 4
-4 4 -10z m308 -5 c5 -4 -10 -35 -17 -35 -4 0 -13 12 -20 26 -10 24 -10 25 11
18 13 -3 24 -8 26 -9z m-341 -5 c-1 -3 4 -15 11 -27 18 -33 -3 -28 -28 6 -20
29 -20 30 -1 28 11 0 19 -4 18 -7z"/>
<path d="M1920 880 c0 -16 33 -80 42 -80 12 0 9 12 -7 34 -8 11 -15 28 -15 38
0 10 -4 18 -10 18 -5 0 -10 -4 -10 -10z"/>
<path d="M1831 827 c-8 -11 -6 -18 9 -32 18 -16 20 -16 20 -2 0 10 -4 17 -10
17 -5 0 -7 7 -4 15 8 19 0 19 -15 2z"/>
<path d="M1873 825 c0 -8 4 -15 9 -15 4 0 8 7 8 15 0 8 -4 15 -8 15 -5 0 -9
-7 -9 -15z"/>
<path d="M1971 791 c-8 -5 -9 -11 -3 -15 5 -3 12 1 16 9 6 17 6 18 -13 6z"/>
<path d="M1920 765 c7 -9 15 -13 17 -11 7 7 -7 26 -19 26 -6 0 -6 -6 2 -15z"/>
<path d="M2000 745 c-7 -9 -8 -15 -2 -15 5 0 12 7 16 15 3 8 4 15 2 15 -2 0
-9 -7 -16 -15z"/>
<path d="M90 1002 c0 -20 81 -192 91 -192 8 0 0 31 -10 40 -7 5 -41 75 -65
130 -8 19 -15 29 -16 22z"/>
<path d="M1255 990 c3 -5 8 -10 11 -10 2 0 4 5 4 10 0 6 -5 10 -11 10 -5 0 -7
-4 -4 -10z"/>
<path d="M2815 980 c3 -5 8 -10 11 -10 2 0 4 5 4 10 0 6 -5 10 -11 10 -5 0 -7
-4 -4 -10z"/>
<path d="M2850 887 c-14 -21 -33 -61 -46 -100 -5 -12 -13 -16 -28 -12 -15 5
-17 4 -7 -3 12 -8 12 -14 0 -41 -8 -17 -20 -31 -26 -31 -7 0 -12 -3 -12 -7 4
-22 -3 -35 -15 -30 -10 4 -12 0 -8 -16 3 -12 1 -19 -3 -15 -7 7 -49 -62 -42
-69 2 -1 24 25 49 60 47 63 164 275 156 282 -2 2 -10 -6 -18 -18z"/>
<path d="M1530 861 c0 -5 7 -12 16 -15 14 -5 15 -4 4 9 -14 17 -20 19 -20 6z"/>
<path d="M265 798 c-11 -6 -30 -20 -42 -31 l-22 -19 21 -28 c17 -24 26 -27 57
-23 29 3 41 -1 63 -22 31 -28 73 -114 91 -184 12 -46 53 -111 69 -111 5 0 6 6
2 12 -8 12 -20 80 -29 158 -2 19 -13 53 -25 75 -11 21 -20 44 -20 50 0 15 -75
87 -82 79 -4 -3 -17 1 -30 10 -12 9 -18 16 -12 16 5 0 15 -5 22 -12 6 -6 15
-8 19 -4 9 9 -33 46 -51 46 -6 0 -20 -6 -31 -12z m25 -13 c0 -2 -14 -12 -31
-21 -17 -8 -28 -11 -24 -4 4 6 17 15 29 20 27 11 26 11 26 5z m20 -33 c0 -4
-10 -13 -21 -20 -17 -11 -24 -11 -33 -1 -8 9 -8 10 0 6 7 -4 17 0 24 8 13 16
30 20 30 7z m52 -41 c4 -3 4 -12 -1 -19 -5 -9 -14 -5 -32 14 l-24 26 25 -7
c14 -4 28 -10 32 -14z m62 -106 c5 -27 4 -26 -14 9 -11 22 -20 47 -20 55 1 22
25 -26 34 -64z"/>
<path d="M2105 750 c-3 -5 -1 -10 4 -10 6 0 11 5 11 10 0 6 -2 10 -4 10 -3 0
-8 -4 -11 -10z"/>
<path d="M605 740 c-3 -5 -1 -10 4 -10 6 0 11 5 11 10 0 6 -2 10 -4 10 -3 0
-8 -4 -11 -10z"/>
<path d="M2650 680 c0 -5 5 -10 11 -10 5 0 7 5 4 10 -3 6 -8 10 -11 10 -2 0
-4 -4 -4 -10z"/>
<path d="M260 662 c0 -5 8 -17 18 -28 9 -10 36 -44 60 -75 52 -69 102 -116 58
-54 -39 53 -129 165 -133 165 -2 0 -3 -4 -3 -8z"/>
<path d="M710 660 c0 -13 18 -22 24 -11 3 5 -1 11 -9 15 -8 3 -15 1 -15 -4z"/>
<path d="M2590 650 c0 -5 5 -10 10 -10 6 0 10 5 10 10 0 6 -4 10 -10 10 -5 0
-10 -4 -10 -10z"/>
<path d="M770 630 c0 -5 5 -10 11 -10 5 0 7 5 4 10 -3 6 -8 10 -11 10 -2 0 -4
-4 -4 -10z"/>
<path d="M740 609 c0 -5 5 -7 10 -4 6 3 10 8 10 11 0 2 -4 4 -10 4 -5 0 -10
-5 -10 -11z"/>
<path d="M820 610 c0 -5 -6 -8 -12 -6 -7 1 -10 1 -5 -1 4 -3 4 -10 0 -16 -4
-7 1 -6 11 2 14 12 19 12 25 2 6 -10 10 -9 14 4 4 9 3 13 -3 10 -6 -3 -10 -1
-10 4 0 6 -4 11 -10 11 -5 0 -10 -4 -10 -10z"/>
<path d="M750 590 c-13 -8 -13 -11 1 -25 14 -15 17 -14 30 2 13 17 13 17 -5 3
-18 -14 -19 -13 -14 8 4 12 5 22 5 22 -1 0 -9 -5 -17 -10z"/>
<path d="M859 572 c-8 -10 -13 -24 -11 -32 5 -13 3 -13 -14 0 -18 14 -18 14
-1 -6 9 -11 14 -24 10 -29 -5 -4 -2 -5 5 -1 6 4 12 18 12 31 0 13 7 31 16 39
8 9 12 16 7 16 -5 0 -15 -8 -24 -18z"/>
<path d="M914 582 c3 -5 1 -12 -6 -14 -8 -3 -6 -7 5 -11 20 -7 24 17 5 29 -6
4 -8 3 -4 -4z"/>
<path d="M1500 580 c0 -5 5 -10 11 -10 5 0 7 5 4 10 -3 6 -8 10 -11 10 -2 0
-4 -4 -4 -10z"/>
<path d="M797 563 c-4 -3 -7 -11 -7 -17 0 -6 5 -5 12 2 6 6 9 14 7 17 -3 3 -9
2 -12 -2z"/>
<path d="M950 555 c-7 -9 -10 -18 -6 -22 3 -3 6 -1 6 5 0 6 7 9 15 6 8 -4 15
-1 15 4 0 19 -17 22 -30 7z"/>
<path d="M1046 555 c10 -8 23 -15 28 -15 6 0 1 7 -10 15 -10 8 -23 15 -28 15
-6 0 -1 -7 10 -15z"/>
<path d="M2640 557 c0 -20 -16 -23 -24 -4 -3 7 -5 6 -3 -4 3 -22 -45 -89 -65
-89 -9 0 -18 -9 -20 -21 -2 -12 -12 -27 -23 -33 -11 -6 -24 -17 -28 -23 -4 -7
-13 -13 -20 -13 -7 0 -23 -14 -36 -30 -13 -17 -29 -30 -37 -30 -8 0 -14 -4
-14 -10 0 -5 -6 -10 -14 -10 -8 0 -16 -4 -18 -9 -1 -4 -29 -25 -61 -46 -32
-20 -56 -39 -53 -42 12 -12 213 136 311 229 96 91 126 130 111 145 -3 4 -6 -1
-6 -10z"/>
<path d="M877 531 c-3 -13 -1 -18 9 -14 7 2 10 11 7 19 -7 19 -10 18 -16 -5z"/>
<path d="M1100 542 c0 -5 7 -15 15 -22 8 -7 15 -9 15 -6 0 4 -7 14 -15 22 -8
9 -15 11 -15 6z"/>
<path d="M1030 526 c0 -9 5 -16 10 -16 6 0 10 4 10 9 0 6 -4 13 -10 16 -5 3
-10 -1 -10 -9z"/>
<path d="M915 520 c3 -5 8 -10 11 -10 2 0 4 5 4 10 0 6 -5 10 -11 10 -5 0 -7
-4 -4 -10z"/>
<path d="M956 521 c-19 -7 -19 -8 2 -13 12 -4 22 -13 22 -21 0 -8 8 -17 18
-19 19 -5 52 13 52 28 0 4 -5 3 -12 -4 -19 -19 -43 -14 -54 12 -7 18 -14 22
-28 17z"/>
<path d="M1067 516 c-4 -10 -1 -13 9 -9 7 3 14 9 14 14 0 14 -17 10 -23 -5z"/>
<path d="M1157 523 c-4 -7 -2 -15 4 -18 6 -4 8 -19 5 -34 -4 -17 -3 -21 2 -13
7 11 11 10 16 -3 4 -11 0 -23 -11 -31 -17 -12 -16 -13 5 -7 23 6 28 22 13 51
-5 9 -13 28 -18 41 -6 15 -12 20 -16 14z"/>
<path d="M1227 509 c7 -7 15 -10 18 -7 3 3 -2 9 -12 12 -14 6 -15 5 -6 -5z"/>
<path d="M895 490 c3 -5 16 -10 28 -9 21 0 21 1 2 9 -28 12 -37 12 -30 0z"/>
<path d="M1250 479 c0 -5 5 -7 10 -4 6 3 10 8 10 11 0 2 -4 4 -10 4 -5 0 -10
-5 -10 -11z"/>
<path d="M1290 475 c-7 -9 -10 -18 -6 -22 3 -3 6 -1 6 6 0 6 10 10 23 8 12 -2
16 -2 9 0 -7 3 -10 9 -7 14 10 15 -12 10 -25 -6z"/>
<path d="M1054 465 c-16 -12 -17 -14 -3 -15 9 0 19 7 23 15 7 19 5 19 -20 0z"/>
<path d="M1120 470 c0 -5 5 -10 10 -10 6 0 10 5 10 10 0 6 -4 10 -10 10 -5 0
-10 -4 -10 -10z"/>
<path d="M1430 455 c0 -14 3 -25 8 -25 4 0 7 11 7 25 0 14 -3 25 -7 25 -5 0
-8 -11 -8 -25z"/>
<path d="M930 461 c0 -6 4 -13 10 -16 6 -3 7 1 4 9 -7 18 -14 21 -14 7z"/>
<path d="M1468 463 c7 -3 16 -2 19 1 4 3 -2 6 -13 5 -11 0 -14 -3 -6 -6z"/>
<path d="M1588 453 c6 -2 12 -9 12 -15 0 -6 -7 -8 -15 -4 -8 3 -15 1 -15 -3 0
-13 -33 -23 -39 -12 -4 5 -15 3 -26 -6 -20 -15 -20 -15 3 -8 17 5 22 2 22 -12
0 -10 3 -14 8 -8 11 17 75 44 87 38 5 -4 1 3 -9 15 -11 12 -24 22 -30 21 -6 0
-6 -3 2 -6z"/>
<path d="M2110 450 c0 -5 5 -10 11 -10 5 0 7 5 4 10 -3 6 -8 10 -11 10 -2 0
-4 -4 -4 -10z"/>
<path d="M983 443 c4 -3 19 -8 34 -9 21 -2 24 -1 13 6 -17 11 -57 14 -47 3z"/>
<path d="M1221 441 c-9 -6 -6 -10 10 -14 28 -8 34 -3 16 11 -7 6 -19 7 -26 3z"/>
<path d="M1307 433 c-11 -10 13 -32 28 -26 12 4 12 7 0 19 -15 16 -19 17 -28
7z"/>
<path d="M1650 425 c0 -8 4 -15 10 -15 5 0 7 7 4 15 -4 8 -8 15 -10 15 -2 0
-4 -7 -4 -15z"/>
<path d="M1681 424 c0 -11 3 -14 6 -6 3 7 2 16 -1 19 -3 4 -6 -2 -5 -13z"/>
<path d="M1896 425 c-8 -22 -8 -22 8 -28 11 -4 13 0 11 15 -6 28 -11 32 -19
13z"/>
<path d="M2056 424 c-11 -8 -16 -14 -10 -14 13 0 39 18 34 24 -3 2 -14 -2 -24
-10z"/>
<path d="M1360 419 c0 -6 5 -7 10 -4 6 3 13 -1 16 -9 3 -9 10 -16 15 -16 4 0
6 7 2 16 -5 13 -2 15 18 9 13 -4 21 -4 16 1 -11 12 -77 15 -77 3z"/>
<path d="M1725 420 c-4 -6 -11 -7 -17 -4 -7 4 -8 2 -4 -4 4 -7 1 -12 -6 -12
-7 -1 -2 -7 12 -15 14 -8 21 -14 17 -15 -4 0 -2 -6 5 -14 7 -8 16 -12 21 -9 4
2 0 11 -9 20 -12 13 -13 17 -2 24 9 6 10 9 1 9 -7 0 -10 7 -7 15 7 17 -1 20
-11 5z"/>
<path d="M2005 410 c-3 -5 1 -10 9 -10 9 0 16 5 16 10 0 6 -4 10 -9 10 -6 0
-13 -4 -16 -10z"/>
<path d="M1596 399 c6 -11 44 -12 44 -1 0 4 -11 8 -25 8 -14 1 -22 -2 -19 -7z"/>
<path d="M1850 399 c0 -5 5 -7 10 -4 6 3 10 8 10 11 0 2 -4 4 -10 4 -5 0 -10
-5 -10 -11z"/>
<path d="M1132 380 c-7 -11 -8 -20 -3 -20 9 0 24 30 18 36 -1 2 -8 -6 -15 -16z"/>
<path d="M1346 386 c3 -7 11 -13 19 -13 22 0 18 14 -4 20 -13 3 -18 0 -15 -7z"/>
<path d="M1420 380 c0 -7 -7 -10 -15 -6 -8 3 -15 1 -15 -4 0 -5 13 -8 30 -7
16 1 29 6 27 11 -5 15 -27 19 -27 6z"/>
<path d="M1865 381 c-3 -5 -1 -12 5 -16 5 -3 10 1 10 9 0 18 -6 21 -15 7z"/>
<path d="M520 375 c0 -19 187 -149 195 -135 3 5 1 10 -5 10 -9 0 -88 47 -100
60 -16 17 -90 71 -90 65z"/>
<path d="M1464 360 c0 -10 5 -16 10 -13 5 3 15 -2 21 -11 10 -13 14 -14 18 -3
3 8 -6 21 -22 30 -25 15 -27 14 -27 -3z"/>
<path d="M1545 369 c-4 -6 -4 -13 -1 -16 3 -4 6 -1 6 6 0 8 7 11 15 7 8 -3 15
-1 15 4 0 13 -27 13 -35 -1z"/>
<path d="M1950 376 c0 -2 7 -7 16 -10 8 -3 12 -2 9 4 -6 10 -25 14 -25 6z"/>
<path d="M2034 365 c11 -8 22 -12 25 -9 6 6 -19 24 -34 24 -5 -1 -1 -7 9 -15z"/>
<path d="M1158 363 c6 -2 12 -13 12 -24 0 -10 5 -19 10 -19 13 0 13 6 0 31 -6
10 -16 19 -23 18 -9 0 -9 -2 1 -6z"/>
<path d="M1280 366 c0 -2 7 -7 16 -10 8 -3 12 -2 9 4 -6 10 -25 14 -25 6z"/>
<path d="M1832 354 c-9 -15 -12 -16 -26 -5 -14 12 -16 12 -10 -3 3 -9 13 -16
20 -16 8 0 18 -9 22 -19 6 -15 9 -16 19 -6 9 10 7 14 -9 18 -18 5 -19 8 -8 22
7 8 10 18 7 21 -3 3 -10 -2 -15 -12z"/>
<path d="M1897 364 c-13 -13 -7 -24 14 -24 11 0 19 5 17 12 -5 14 -22 21 -31
12z"/>
<path d="M788 353 c7 -3 16 -2 19 1 4 3 -2 6 -13 5 -11 0 -14 -3 -6 -6z"/>
<path d="M850 351 c0 -6 4 -13 10 -16 6 -3 7 1 4 9 -7 18 -14 21 -14 7z"/>
<path d="M890 352 c0 -5 7 -15 15 -22 8 -7 15 -9 15 -6 0 4 -7 14 -15 22 -8 9
-15 11 -15 6z"/>
<path d="M1620 346 c0 -8 4 -17 9 -20 5 -4 7 3 4 14 -6 23 -13 26 -13 6z"/>
<path d="M1658 353 c7 -3 16 -2 19 1 4 3 -2 6 -13 5 -11 0 -14 -3 -6 -6z"/>
<path d="M940 340 c-9 -6 -10 -10 -3 -10 6 0 15 5 18 10 8 12 4 12 -15 0z"/>
<path d="M1070 346 c0 -2 7 -7 16 -10 8 -3 12 -2 9 4 -6 10 -25 14 -25 6z"/>
<path d="M1708 343 c6 -2 9 -9 6 -14 -3 -6 -11 -5 -20 2 -10 8 -14 8 -14 1 0
-7 -8 -9 -17 -5 -10 3 -15 3 -12 -1 12 -13 69 -16 70 -3 0 7 7 -3 15 -20 16
-38 25 -43 17 -10 -7 27 -32 57 -47 56 -6 0 -6 -3 2 -6z"/>
<path d="M967 326 c-4 -10 -12 -14 -18 -10 -7 4 -9 3 -5 -4 4 -7 17 -8 39 -1
17 5 33 9 35 9 2 0 0 5 -3 10 -5 8 -11 8 -20 0 -10 -8 -14 -8 -17 2 -3 8 -7 6
-11 -6z"/>
<path d="M1560 330 c-8 -5 -12 -11 -9 -14 2 -3 11 -1 19 4 8 5 12 11 9 14 -2
3 -11 1 -19 -4z"/>
<path d="M2011 324 c0 -11 3 -14 6 -6 3 7 2 16 -1 19 -3 4 -6 -2 -5 -13z"/>
<path d="M1228 323 c7 -3 16 -2 19 1 4 3 -2 6 -13 5 -11 0 -14 -3 -6 -6z"/>
<path d="M1595 320 c3 -5 11 -10 16 -10 6 0 7 5 4 10 -3 6 -11 10 -16 10 -6 0
-7 -4 -4 -10z"/>
<path d="M1890 320 c0 -5 5 -10 11 -10 5 0 7 5 4 10 -3 6 -8 10 -11 10 -2 0
-4 -4 -4 -10z"/>
<path d="M997 304 c-3 -3 -3 -13 0 -22 5 -11 3 -13 -7 -7 -9 5 -11 4 -6 -3 4
-7 14 -12 23 -12 9 0 13 -6 10 -14 -3 -8 2 -16 14 -19 12 -3 19 0 19 9 0 8 5
14 11 14 5 0 7 -6 3 -12 -5 -10 -4 -10 6 -1 19 17 3 30 -19 16 -24 -15 -49 20
-30 43 9 11 8 14 -3 14 -8 0 -17 -3 -21 -6z"/>
<path d="M1580 299 c0 -5 9 -9 20 -9 11 0 20 2 20 4 0 2 -9 6 -20 9 -11 3 -20
1 -20 -4z"/>
<path d="M1370 290 c0 -5 5 -10 11 -10 5 0 7 5 4 10 -3 6 -8 10 -11 10 -2 0
-4 -4 -4 -10z"/>
<path d="M1630 290 c0 -5 5 -10 10 -10 6 0 10 5 10 10 0 6 -4 10 -10 10 -5 0
-10 -4 -10 -10z"/>
<path d="M1665 290 c-3 -5 -1 -10 4 -10 6 0 11 5 11 10 0 6 -2 10 -4 10 -3 0
-8 -4 -11 -10z"/>
<path d="M1187 278 c7 -8 10 -17 7 -21 -3 -3 4 -3 15 0 19 5 21 18 3 18 -4 0
-14 4 -22 10 -12 7 -13 6 -3 -7z"/>
<path d="M1699 273 c-13 -16 -12 -17 4 -4 16 13 21 21 13 21 -2 0 -10 -8 -17
-17z"/>
<path d="M824 271 c9 -13 47 -30 86 -38 32 -6 15 11 -25 25 -16 5 -39 13 -49
18 -14 5 -17 4 -12 -5z"/>
<path d="M956 265 c4 -8 11 -15 16 -15 6 0 5 6 -2 15 -7 8 -14 15 -16 15 -2 0
-1 -7 2 -15z"/>
<path d="M1310 276 c0 -2 9 -6 20 -9 11 -3 20 -1 20 4 0 5 -9 9 -20 9 -11 0
-20 -2 -20 -4z"/>
<path d="M1414 252 c-19 -6 -17 -10 22 -28 24 -12 44 -18 44 -13 0 5 -12 14
-26 19 -14 6 -22 14 -19 20 3 5 5 10 3 9 -2 -1 -13 -4 -24 -7z"/>
<path d="M1495 240 c-3 -5 1 -10 10 -10 9 0 13 5 10 10 -3 6 -8 10 -10 10 -2
0 -7 -4 -10 -10z"/>
<path d="M1165 231 c-3 -5 -2 -12 3 -15 5 -3 9 1 9 9 0 17 -3 19 -12 6z"/>
<path d="M1598 233 c7 -3 16 -2 19 1 4 3 -2 6 -13 5 -11 0 -14 -3 -6 -6z"/>
<path d="M1666 228 c7 -10 34 -10 34 0 0 4 -9 8 -19 8 -11 0 -17 -4 -15 -8z"/>
<path d="M1132 205 c12 -14 24 -23 26 -20 6 6 -28 45 -39 45 -5 0 1 -11 13
-25z"/>
<path d="M1705 209 c-7 -21 -50 -43 -66 -34 -5 4 -6 -1 -3 -9 5 -13 9 -13 37
0 30 14 66 64 47 64 -5 0 -12 -9 -15 -21z"/>
<path d="M2034 206 c0 -13 4 -22 8 -20 9 6 6 44 -3 44 -4 0 -6 -11 -5 -24z"/>
<path d="M1220 205 c0 -10 -5 -13 -12 -9 -9 5 -9 2 1 -9 7 -9 15 -17 16 -17 8
0 12 41 4 46 -5 3 -9 -2 -9 -11z"/>
<path d="M1518 213 c7 -3 16 -2 19 1 4 3 -2 6 -13 5 -11 0 -14 -3 -6 -6z"/>
<path d="M1070 201 c0 -6 4 -13 10 -16 6 -3 7 1 4 9 -7 18 -14 21 -14 7z"/>
<path d="M1300 200 c-13 -8 -12 -10 3 -10 9 0 17 5 17 10 0 12 -1 12 -20 0z"/>
<path d="M1607 204 c-4 -4 -7 -17 -7 -28 1 -19 1 -20 11 -3 11 19 8 43 -4 31z"/>
<path d="M1250 191 c0 -5 7 -15 17 -22 15 -13 15 -12 4 9 -12 23 -21 28 -21
13z"/>
<path d="M1501 196 c2 -2 18 -6 34 -10 22 -5 26 -4 15 4 -14 9 -59 15 -49 6z"/>
<path d="M1100 176 c0 -9 8 -16 20 -16 11 0 20 5 20 12 0 6 -3 8 -7 5 -3 -4
-12 -2 -20 4 -10 9 -13 8 -13 -5z"/>
<path d="M1350 170 c0 -13 11 -13 30 0 12 8 11 10 -7 10 -13 0 -23 -4 -23 -10z"/>
<path d="M1406 163 c-6 -14 -5 -15 5 -6 7 7 10 15 7 18 -3 3 -9 -2 -12 -12z"/>
<path d="M1140 138 c-12 -8 -12 -9 2 -4 10 3 20 1 23 -4 3 -4 0 -10 -7 -12 -8
-3 -6 -7 5 -11 20 -8 23 15 4 31 -9 8 -17 8 -27 0z"/>
<path d="M1596 85 c-3 -8 -12 -12 -21 -9 -8 3 -15 2 -15 -4 0 -18 37 -20 53
-2 8 10 13 21 10 24 -10 10 -21 7 -27 -9z"/>
<path d="M1410 71 c0 -10 35 -21 70 -21 19 0 22 2 10 9 -8 6 -17 8 -21 5 -4
-2 -19 0 -33 6 -14 5 -26 6 -26 1z"/>
<path d="M1731 74 c-1 -6 6 -17 14 -24 12 -10 15 -9 15 4 0 10 -4 15 -9 12 -5
-4 -12 0 -14 6 -4 8 -6 9 -6 2z"/>
<path d="M1515 60 c3 -5 8 -10 11 -10 2 0 4 5 4 10 0 6 -5 10 -11 10 -5 0 -7
-4 -4 -10z"/>
<path d="M1780 53 c0 -17 -40 -27 -53 -14 -15 15 -30 14 -21 -1 5 -8 0 -9 -14
-6 -12 4 -38 1 -57 -5 -30 -9 -38 -7 -56 9 l-22 19 14 -24 c14 -22 17 -23 104
-17 112 8 172 23 156 39 -9 9 -14 8 -21 -3 -9 -13 -11 -13 -20 0 -6 9 -10 10
-10 3z"/>
<path d="M1858 43 c7 -3 16 -2 19 1 4 3 -2 6 -13 5 -11 0 -14 -3 -6 -6z"/>
<path d="M1532 24 c10 -10 20 -15 24 -12 3 4 -5 12 -18 18 -22 12 -22 12 -6
-6z"/>
<path d="M1420 19 c0 -5 5 -7 10 -4 6 3 10 8 10 11 0 2 -4 4 -10 4 -5 0 -10
-5 -10 -11z"/>
<path d="M1450 22 c0 -10 41 -24 49 -17 6 7 0 11 -26 19 -13 4 -23 3 -23 -2z"/>
</g>
</svg>
